<svg version="1.2" xmlns="http://www.w3.org/2000/svg" viewBox="0 0 378 125" width="378" height="125">
	<title>turk_telekom_2016_logo-svg</title>
	<style>
		.s0 { fill: #c2e013 } 
		.s1 { fill: #3b80ca } 
		.s2 { fill: #e72a23 } 
		.s3 { fill: #4bc3c7 } 
		.s4 { fill: #1c2a4f } 
		.s5 { fill: #002855 } 
	</style>
	<g id="g8">
		<g id="g10">
			<path id="path12" class="s0" d="m320.8 24.8l-14.3 8.2 7.1 4.1 7.2-4.1zm0 0l-14.3-8.2 14.3-8.3z"/>
			<path id="path14" class="s1" d="m320.8 24.8l-14.3 8.2-14.3-8.2 14.3-8.3z"/>
			<path id="path16" class="s2" d="m378 8.3l-14.3-8.3v16.5z"/>
			<path id="path18" class="s3" d="m285.8 106.9l-29.7-17.2v34.3zm6.4-65.6l14.3-8.3-14.3-8.2zm0-33v16.5l14.3-8.3zm28.6 66.1v-24.8l14.3 8.3v-33.1l-14.3 8.3v-8.3-16.5l57.1 33.1z"/>
			<path id="path20" class="s4" d="m215.7 96.7v-14l12.1 7zm55.3-55.4v-16.5l14.3 8.2zm-233.2 2.9h6.4v5h-6.4zm-10.3 0h6.4v5h-6.4zm14.1 30.1l-0.9-3c-0.2 0.4-1.9 3.4-6.5 3.4-4.1 0-9-2.2-9-9.3v-12.5h6.4v12.5c0 3.2 1.7 4.6 3.9 4.6 2.9 0 4.7-2.3 4.7-5.4v-11.7h6.3v21.4zm-18.4-33v5.5h-8.3v27.5h-6.6v-27.5h-8.3v-5.5zm36.5 8.5l-0.1 3.6c1.5-3.1 3.9-3.9 8.2-3.9v6.3h-0.8c-4.1 0-7.1 2-7.1 7.3v11.2h-6.4v-24.5zm73.5-8.5v5.5h-8.3v27.5h-6.6v-27.5h-8.3v-5.5zm104.5 6.8c-7.7 0-13.9 6.2-13.9 13.9 0 7.7 6.2 13.9 13.9 13.9 7.7 0 13.9-6.2 13.9-13.9 0-7.7-6.2-13.9-13.9-13.9zm0 21.8c-4.4 0-7.9-3.5-7.9-7.9 0-4.4 3.5-7.9 7.9-7.9 4.4 0 7.9 3.5 7.9 7.9 0 4.4-3.5 7.9-7.9 7.9zm23.2-20.1l1.1 3.2c1-2.1 4-3.7 6.8-3.7 2.8 0 5.6 1.7 6.7 4.4 1.2-2.4 3.9-4.4 7.9-4.4 5.1 0 8.8 3.1 8.8 10.2v14.8h-6.4v-15.2c0-2.5-1-4.7-3.9-4.7-3.2 0-4.5 2.5-4.5 5.8v14.1h-6.4v-15.5c0-2.2-1-4.4-3.9-4.4-3.2 0-4.6 2.5-4.6 5.7v14.2h-6.4v-24.5zm-53.4-9.6v20.4l8.1-10.8h7.6l-9.7 11.5 9.3 13h-7.1l-5.9-8.5-2.3 2.6v5.9h-6.4v-30.5zm-128.4 0l0.1 20.4 8.1-10.8h7.6l-9.7 11.5 9.3 13h-7.1l-5.9-8.6-2.3 2.7v5.9h-6.4v-30.5zm106 9.1c7.1 0 11.4 4.7 11.4 12.1 0 1.4-0.1 2.5-0.1 2.5h-17.4c0.3 3.9 3.7 5.6 7.2 5.6 2.2 0 5.2-0.6 7-1.5l2.1 4.6c-2.6 1.4-6.3 2.1-9.3 2.1-8.3 0-13.7-5.1-13.7-12.6 0-7.5 5.2-12.8 12.8-12.8zm5.3 10.4c-0.1-2.8-1.7-5.3-5-5.3-3.4 0-5.8 1.8-6.5 5.3zm-24.6-19.5v27.4c0 1.4 0.8 2 2.2 2 0.4 0 1.1-0.1 1.6-0.2v4.9c-1.3 0.2-2.9 0.4-4.4 0.4-3 0-5.7-1.1-5.7-6.7v-24.2zm-22.7 9c7.2 0 11.4 4.8 11.4 12.2 0 1.4-0.1 2.5-0.1 2.5h-17.3c0.2 3.9 3.6 5.6 7.1 5.6 2.2 0 5.2-0.6 7-1.6l2.2 4.7c-2.7 1.4-6.4 2.1-9.4 2.1-8.3 0-13.6-5.2-13.6-12.6 0-7.6 5.1-12.9 12.7-12.9zm5.3 10.4c0-2.8-1.6-5.2-4.9-5.2-3.5 0-5.9 1.7-6.5 5.2z"/>
			<path id="path22" class="s1" d="m335.1 24.8l-14.3 8.2v16.5l14.3 8.3z"/>
			<path id="path24" class="s4" d="m306.5 41.3l14.3 8.2v-16.5z"/>
		</g>
		<path id="International" class="s5" aria-label="International"  d="m8.1 83.2v16.8h2.6v-16.8zm6.5 4.3v12.5h2.6v-6.9c0-1.6 1.1-3.3 3.1-3.3 1.7 0 2.8 1.1 2.8 2.9v7.3h2.6v-7.4c0-3.8-2.2-5.3-4.7-5.3-2.8 0-3.9 2.1-4 2.4l-0.4-2.2zm15.4-3.6l-0.4 3.6-1.8 0.4v1.5h1.8v6.3c0 2.9 0.9 4.3 3.7 4.3 0.8 0 1.7-0.2 2.3-0.5l-0.3-1.8c-0.6 0-1.1 0.1-1.6 0.1-1.1 0-1.5-0.8-1.5-1.8v-6.6h2.8v-1.9h-2.8v-3.6zm6.9 10c0 3.7 2.7 6.3 6.5 6.3 1.7 0 3.5-0.5 4.6-1.1l-0.9-1.9c-1 0.4-2.3 0.8-3.6 0.8-2 0-3.8-1.1-3.9-3.2h9.1c0 0 0.1-0.4 0.1-1.2 0-3.2-2-6.3-5.7-6.3-3.7 0-6.2 2.8-6.2 6.6zm2.7-1.1c0.2-1.9 1.7-3.2 3.6-3.2 2.2 0 3.1 1.6 3.1 3.2zm11.8-5.2v12.4h2.6v-6.5c0-2.8 1.7-3.6 3.6-3.6 0.2 0 0.3 0 0.4 0v-2.4c-0.1 0-0.2 0-0.2 0-2.3 0-3.4 0.8-4 2.2l-0.3-2.1zm8.9-0.1v12.5h2.6v-6.9c0-1.6 1.1-3.3 3.1-3.3 1.7 0 2.8 1.1 2.8 2.9v7.3h2.6v-7.4c0-3.8-2.2-5.3-4.7-5.3-2.8 0-3.9 2.1-4 2.4l-0.4-2.2zm14.5 0.6l0.5 1.8c1.2-0.2 2.9-0.5 3.9-0.5 1.4 0 2.7 0.5 2.7 2.4v0.7c-0.6-0.1-2-0.2-2.9-0.2-2.9 0-5.3 1.1-5.3 3.9 0 2.6 2 4 4.5 4 1.9 0 3.3-0.7 4-2v0.2c0 1.2 1.1 1.6 2 1.6 0.8 0 1.7-0.3 1.8-0.3v-2.1c-0.4 0-0.8 0.1-1 0.1-0.4 0-0.6-0.1-0.6-0.5v-5.8c0-2.8-1.8-4.1-4.8-4.1-1.8 0-3.8 0.5-4.8 0.8zm7.1 6.3v1.3c0 1.4-1.7 2.5-3.3 2.5-1.4 0-2.5-0.7-2.5-2 0-1.8 1.9-2.1 3.3-2.1 1 0 2 0.2 2.5 0.3zm7.4-10.5l-0.4 3.6-1.7 0.4v1.5h1.7v6.3c0 2.9 0.9 4.3 3.8 4.3 0.7 0 1.6-0.2 2.3-0.5l-0.4-1.8c-0.6 0-1.1 0.1-1.5 0.1-1.2 0-1.6-0.8-1.6-1.8v-6.6h2.9v-1.9h-2.9v-3.6zm6.8 3.6v1.8l1.4 0.5v10.2h2.6v-12.5zm2.4-4.9c-0.9 0-1.6 0.7-1.6 1.5 0 0.9 0.7 1.6 1.6 1.6 0.8 0 1.6-0.7 1.6-1.6 0-0.8-0.8-1.5-1.6-1.5zm4.2 11.2c0 3.7 2.9 6.4 6.4 6.4 3.6 0 6.5-2.7 6.5-6.4 0-3.8-2.9-6.5-6.5-6.5-3.5 0-6.4 2.7-6.4 6.5zm6.4-4.2c2.2 0 3.9 1.8 3.9 4.2 0 2.3-1.7 4.1-3.9 4.1-2.2 0-3.8-1.8-3.8-4.1 0-2.4 1.6-4.2 3.8-4.2zm9.2-2.1v12.5h2.6v-6.9c0-1.6 1.1-3.3 3.2-3.3 1.6 0 2.7 1.1 2.7 2.9v7.3h2.6v-7.4c0-3.8-2.1-5.3-4.7-5.3-2.7 0-3.9 2.1-3.9 2.4l-0.5-2.2zm14.5 0.6l0.5 1.8c1.2-0.2 2.9-0.5 3.9-0.5 1.5 0 2.7 0.5 2.7 2.4v0.7c-0.5-0.1-1.9-0.2-2.8-0.2-2.9 0-5.3 1.1-5.3 3.9 0 2.6 2 4 4.4 4 1.9 0 3.4-0.7 4-2v0.2c0 1.2 1.1 1.6 2.1 1.6 0.7 0 1.6-0.3 1.7-0.3v-2.1c-0.4 0-0.8 0.1-1 0.1-0.4 0-0.6-0.1-0.6-0.5v-5.8c0-2.8-1.7-4.1-4.7-4.1-1.8 0-3.9 0.5-4.9 0.8zm7.1 6.3v1.3c0 1.4-1.6 2.5-3.3 2.5-1.3 0-2.5-0.7-2.5-2 0-1.8 1.9-2.1 3.3-2.1 1 0 2.1 0.2 2.5 0.3zm6.4-12v15.4c0 1.1 0.5 2.2 2.1 2.2 0.8 0 1.9-0.3 2-0.3v-2.1c-0.4 0-0.7 0.1-1 0.1-0.3 0-0.6-0.1-0.6-0.5v-14.8z"/>
	</g>
</svg>